# xmcd
#
# Track frame offsets: 
#        150
#        14662
#        27555
#        46244
#        59909
#        76455
#        89859
#        103891
#        113323
#        136282
#        146714
#        167692
#        178798
#        197992
#        216678
#        238426
#        258130
#
# Disc length: 3668 seconds
#
# Revision: 1
# Processed by: cddbd v1.5.1PL0 Copyright (c) Steve Scherf et al.
# Submitted via: ExactAudioCopy v0.95a5
#
DISCID=0e0e5211
DTITLE=Various Artist - Country Songs of American 1
DYEAR=2000
DGENRE=Country
TTITLE0=The Sound Of Silence
TTITLE1=Blowing In The Wind
TTITLE2=Let It Be
TTITLE3=Cotton Field
TTITLE4=All Out Of Love
TTITLE5=Windflowers
TTITLE6=Green Green Grass Of Home
TTITLE7=Yesterday
TTITLE8=Sunshine On My Shoulder
TTITLE9=Micheal, Row The Boat
TTITLE10=I Don't Want To Talk About It
TTITLE11=Rain And Tears
TTITLE12=Streets Of London
TTITLE13=Sometimes When We Touch
TTITLE14=Always
TTITLE15=How Can I Tell Her
TTITLE16=Love Is Love
EXTD=
EXTT0=
EXTT1=
EXTT2=
EXTT3=
EXTT4=
EXTT5=
EXTT6=
EXTT7=
EXTT8=
EXTT9=
EXTT10=
EXTT11=
EXTT12=
EXTT13=
EXTT14=
EXTT15=
EXTT16=
PLAYORDER=
